<?xml version="1.0" encoding="UTF-8" standalone="no"?>
<!-- Created with Inkscape (http://www.inkscape.org/) -->

<svg
   version="1.1"
   id="svg1"
   width="315.388"
   height="104.224"
   viewBox="0 0 315.388 104.224"
   sodipodi:docname="column_major_vectorisation.pdf"
   xmlns:inkscape="http://www.inkscape.org/namespaces/inkscape"
   xmlns:sodipodi="http://sodipodi.sourceforge.net/DTD/sodipodi-0.dtd"
   xmlns="http://www.w3.org/2000/svg"
   xmlns:svg="http://www.w3.org/2000/svg">
  <defs
     id="defs1" />
  <sodipodi:namedview
     id="namedview1"
     pagecolor="#ffffff"
     bordercolor="#000000"
     borderopacity="0.25"
     inkscape:showpageshadow="2"
     inkscape:pageopacity="0.0"
     inkscape:pagecheckerboard="0"
     inkscape:deskcolor="#d1d1d1">
    <inkscape:page
       x="0"
       y="0"
       inkscape:label="1"
       id="page1"
       width="315.388"
       height="104.224"
       margin="0"
       bleed="0" />
  </sodipodi:namedview>
  <g
     id="g1"
     inkscape:groupmode="layer"
     inkscape:label="1">
    <path
       id="path1"
       d="M 0.8505,38.26836 H -7.08655"
       style="fill:none;stroke:#000000;stroke-width:1.89291;stroke-linecap:butt;stroke-linejoin:round;stroke-miterlimit:10;stroke-dasharray:none;stroke-opacity:1"
       transform="matrix(1.3333333,0,0,-1.3333333,20.736,96.142667)" />
    <path
       id="path2"
       d="M 30.33115,38.26836 H 38.2682"
       style="fill:none;stroke:#000000;stroke-width:1.89291;stroke-linecap:butt;stroke-linejoin:round;stroke-miterlimit:10;stroke-dasharray:none;stroke-opacity:1"
       transform="matrix(1.3333333,0,0,-1.3333333,20.736,96.142667)" />
    <path
       id="path3"
       d="m 3.6205781,-5.5910156 c 0,-0.1757813 -0.1289062,-0.3398438 -0.3398437,-0.3398438 -0.234375,0 -0.4804688,0.2109375 -0.4804688,0.4804688 0,0.2226562 0.1640625,0.328125 0.328125,0.328125 0.28125,0 0.4921875,-0.2578125 0.4921875,-0.46875 z M 1.7924531,0.40898438 C 1.6049531,1.1707031 1.1244844,1.6160156 0.67917187,1.6160156 c -0.1875,0 -0.2109375,-0.023437 -0.31640625,-0.058594 0.1640625,-0.058594 0.3515625,-0.2460938 0.3515625,-0.46875 0,-0.19921877 -0.15234375,-0.32812502 -0.33984375,-0.32812502 -0.24609375,0 -0.4921875,0.2109375 -0.4921875,0.51562502 0,0.3867187 0.3984375,0.5625 0.80859375,0.5625 0.64453128,0 1.49999998,-0.4804688 1.73437498,-1.35937502 L 3.2572969,-2.8488281 c 0.035156,-0.140625 0.035156,-0.2695313 0.035156,-0.28125 0,-0.4921875 -0.375,-0.8320313 -0.8671875,-0.8320313 -0.9375,0 -1.46484373,1.2773438 -1.46484373,1.3828125 0,0.082031 0.0585937,0.1054688 0.12890623,0.1054688 0.082031,0 0.09375,-0.023437 0.1640625,-0.1992188 0.2578125,-0.5742187 0.6796875,-1.0664062 1.1484375,-1.0664062 0.2695313,0 0.28125,0.2460937 0.28125,0.4101562 0,0.011719 0,0.1757813 -0.035156,0.2929688 z m 0,0"
       style="fill:#333333;fill-opacity:1;fill-rule:nonzero;stroke:none"
       aria-label="j"
       transform="matrix(1.3333333,0,0,1.3333333,1.196,47.9)" />
    <path
       id="path4"
       d="m 2.5795234,-5.9178203 c 0.035156,-0.1289063 0.035156,-0.140625 0.035156,-0.1757813 0,-0.082031 -0.058594,-0.1289062 -0.140625,-0.1289062 -0.1289063,0 -0.9140625,0.070312 -1.0898438,0.09375 -0.09375,0.011719 -0.1875,0.011719 -0.1875,0.1640625 0,0.1171875 0.09375,0.1171875 0.234375,0.1171875 0.421875,0 0.421875,0.070312 0.421875,0.140625 0,0.046875 0,0.058594 -0.035156,0.2226562 l -1.28906251,5.15625004 c -0.0351563,0.1171875 -0.0351563,0.140625 -0.0351563,0.1640625 0,0.140625 0.1171875,0.2578125 0.28125,0.2578125 0.29296881,0 0.35156251,-0.2578125 0.39843751,-0.43359375 l 0.421875,-1.69921879 c 0.609375,0.058594 1.0664063,0.3046875 1.0664063,0.75 0,0.046875 0,0.082031 -0.023437,0.2226563 -0.011719,0.035156 -0.035156,0.16406249 -0.035156,0.25781249 0,0.52734375 0.3632814,0.90234375 0.8554689,0.90234375 0.3398436,0 0.5625,-0.19921875 0.7148436,-0.45703125 0.234375,-0.33984375 0.3515625,-0.87890629 0.3515625,-0.91406249 0,-0.046875 -0.023437,-0.1171875 -0.1171875,-0.1171875 -0.09375,0 -0.1171875,0.046875 -0.1523437,0.2109375 -0.1171875,0.45703124 -0.3398438,1.05468749 -0.7617188,1.05468749 -0.2695312,0 -0.2929687,-0.234375 -0.2929687,-0.421875 0,-0.234375 0.058594,-0.45703129 0.058594,-0.48046879 0.023437,-0.058594 0.046875,-0.1640625 0.046875,-0.2695312 0,-0.6210938 -0.65625,-0.8671875 -1.3476562,-0.9492188 0.2695312,-0.1757812 0.46875,-0.3632812 0.75,-0.6445312 0.4570312,-0.4570313 0.8320312,-0.84375 1.3125,-0.84375 0.1054687,0 0.2226562,0.023437 0.2929687,0.1054687 -0.3984374,0.035156 -0.5039061,0.375 -0.5039061,0.4921875 0,0.1757813 0.1289062,0.328125 0.3515625,0.328125 0.2109375,0 0.4921875,-0.1640625 0.4921875,-0.5625 0,-0.2929687 -0.2109375,-0.5859375 -0.6328125,-0.5859375 -0.5507813,0 -0.984375,0.4335938 -1.3710938,0.8203125 -0.421875,0.421875 -0.6445312,0.6445313 -0.9726562,0.7851563 z m 0,0"
       style="fill:#333333;fill-opacity:1;fill-rule:nonzero;stroke:none"
       aria-label="k"
       transform="matrix(1.3333333,0,0,1.3333333,76.142667,49.269333)" />
    <path
       id="path5"
       d="m 123.87526,38.26836 c 5.47949,0 9.92137,4.44188 9.92137,9.92137 0,5.47949 -4.44188,9.92137 -9.92137,9.92137 H 93.60092 c -6.90524,0 -9.5359,-14.03165 -16.44116,-14.03165 h -6.37802"
       style="fill:none;stroke:#000000;stroke-width:1.89291;stroke-linecap:butt;stroke-linejoin:round;stroke-miterlimit:10;stroke-dasharray:none;stroke-opacity:1"
       transform="matrix(1.3333333,0,0,-1.3333333,20.736,96.142667)" />
    <path
       id="path6"
       d="M 94.3946,38.26836 H 70.78174"
       style="fill:none;stroke:#000000;stroke-width:1.89291;stroke-linecap:butt;stroke-linejoin:round;stroke-miterlimit:10;stroke-dasharray:none;stroke-opacity:1"
       transform="matrix(1.3333333,0,0,-1.3333333,20.736,96.142667)" />
    <path
       id="path7"
       d="m 36.56743,59.24496 c 18.07243,12.18987 37.82719,12.18987 52.50052,2.29268"
       style="fill:none;stroke:#333333;stroke-width:1.34497;stroke-linecap:butt;stroke-linejoin:round;stroke-miterlimit:10;stroke-dasharray:none;stroke-opacity:1"
       transform="matrix(1.3333333,0,0,-1.3333333,20.736,96.142667)" />
    <path
       id="path8"
       d="M 5.0838,0 1.92336,1.1373 2.99007,0 1.92336,-1.1373 Z"
       style="fill:#333333;fill-opacity:1;fill-rule:nonzero;stroke:#333333;stroke-width:1.14803;stroke-linecap:butt;stroke-linejoin:miter;stroke-miterlimit:10;stroke-dasharray:none;stroke-opacity:1"
       transform="matrix(1.1053733,0.74556,0.74556,-1.1053733,136.50537,12.07716)" />
    <path
       id="path9"
       d="m 2.5767656,-5.9168828 c 0.035156,-0.1289063 0.035156,-0.140625 0.035156,-0.1757813 0,-0.082031 -0.058594,-0.1289062 -0.140625,-0.1289062 -0.1289063,0 -0.9140625,0.070312 -1.0898438,0.09375 -0.09375,0.011719 -0.1875,0.011719 -0.1875,0.1640625 0,0.1171875 0.09375,0.1171875 0.234375,0.1171875 0.421875,0 0.421875,0.070312 0.421875,0.140625 0,0.046875 0,0.058594 -0.035156,0.2226562 l -1.28906252,5.15625004 c -0.0351563,0.1171875 -0.0351563,0.140625 -0.0351563,0.1640625 0,0.140625 0.1171875,0.2578125 0.28125,0.2578125 0.29296872,0 0.35156252,-0.2578125 0.39843752,-0.43359375 l 0.421875,-1.69921879 c 0.609375,0.058594 1.0664063,0.3046875 1.0664063,0.75 0,0.046875 0,0.082031 -0.023437,0.2226563 -0.011719,0.035156 -0.035156,0.16406249 -0.035156,0.25781249 0,0.52734375 0.3632813,0.90234375 0.8554688,0.90234375 0.3398437,0 0.5624999,-0.19921875 0.7148437,-0.45703125 0.234375,-0.33984375 0.3515625,-0.87890629 0.3515625,-0.91406249 0,-0.046875 -0.023437,-0.1171875 -0.1171875,-0.1171875 -0.09375,0 -0.1171875,0.046875 -0.1523438,0.2109375 -0.1171875,0.45703124 -0.3398437,1.05468749 -0.7617187,1.05468749 -0.2695312,0 -0.2929687,-0.234375 -0.2929687,-0.421875 0,-0.234375 0.058594,-0.45703129 0.058594,-0.48046879 0.023437,-0.058594 0.046875,-0.1640625 0.046875,-0.2695312 0,-0.6210938 -0.65625,-0.8671875 -1.3476563,-0.9492188 0.2695313,-0.1757812 0.4687501,-0.3632812 0.7500001,-0.6445312 0.4570312,-0.4570313 0.8320312,-0.84375 1.3124999,-0.84375 0.1054688,0 0.2226563,0.023437 0.2929688,0.1054687 -0.3984375,0.035156 -0.5039062,0.375 -0.5039062,0.4921875 0,0.1757813 0.1289062,0.328125 0.3515625,0.328125 0.2109375,0 0.4921875,-0.1640625 0.4921875,-0.5625 0,-0.2929687 -0.2109375,-0.5859375 -0.6328125,-0.5859375 -0.5507813,0 -0.984375,0.4335938 -1.3710938,0.8203125 -0.421875,0.421875 -0.6445312,0.6445313 -0.9726562,0.7851563 z m 0,0"
       style="fill:#333333;fill-opacity:1;fill-rule:nonzero;stroke:none"
       aria-label="k"
       transform="matrix(1.3333333,0,0,1.3333333,104.244,34.049333)" />
    <path
       id="path10"
       d="m 3.6219609,-5.58975 c 0,-0.1757812 -0.1289062,-0.3398437 -0.3398437,-0.3398437 -0.234375,0 -0.4804688,0.2109375 -0.4804688,0.4804687 0,0.2226563 0.1640625,0.328125 0.328125,0.328125 0.28125,0 0.4921875,-0.2578125 0.4921875,-0.46875 z m -1.828125,6 c -0.1875,0.7617188 -0.6679687,1.2070313 -1.11328121,1.2070313 -0.1875,0 -0.2109375,-0.023437 -0.31640625,-0.058594 0.1640625,-0.058594 0.3515625,-0.2460937 0.3515625,-0.46875 0,-0.19921875 -0.15234375,-0.328125 -0.33984375,-0.328125 -0.24609375,0 -0.4921875,0.2109375 -0.4921875,0.515625 0,0.3867188 0.3984375,0.5625 0.80859375,0.5625 0.64453126,0 1.49999996,-0.4804687 1.73437496,-1.359375 l 0.8320313,-3.328125 c 0.035156,-0.140625 0.035156,-0.2695312 0.035156,-0.28125 0,-0.4921875 -0.375,-0.8320312 -0.8671875,-0.8320312 -0.9375,0 -1.46484371,1.2773437 -1.46484371,1.3828125 0,0.082031 0.0585937,0.1054687 0.12890621,0.1054687 0.082031,0 0.09375,-0.023437 0.1640625,-0.1992187 0.2578125,-0.5742188 0.6796875,-1.0664063 1.1484375,-1.0664063 0.2695313,0 0.28125,0.2460938 0.28125,0.4101563 0,0.011719 0,0.1757812 -0.035156,0.2929687 z m 0,0"
       style="fill:#333333;fill-opacity:1;fill-rule:nonzero;stroke:none"
       aria-label="j"
       transform="matrix(1.3333333,0,0,1.3333333,105.284,56.328)" />
    <path
       id="path11"
       d="M 191.05748,38.26836 H 173.48262"
       style="fill:none;stroke:#000000;stroke-width:4.03491;stroke-linecap:butt;stroke-linejoin:round;stroke-miterlimit:10;stroke-dasharray:none;stroke-opacity:1"
       transform="matrix(1.3333333,0,0,-1.3333333,20.736,96.142667)" />
    <path
       id="path12"
       d="M 191.05748,38.26836 H 173.48262"
       style="fill:none;stroke:#ffffff;stroke-width:2.04236;stroke-linecap:butt;stroke-linejoin:round;stroke-miterlimit:10;stroke-dasharray:none;stroke-opacity:1"
       transform="matrix(1.3333333,0,0,-1.3333333,20.736,96.142667)" />
    <path
       id="path13"
       d="m 6.3168516,-3.8662734 c 0.1523437,0 0.328125,0 0.328125,-0.1992188 0,-0.1875 -0.1757813,-0.1875 -0.328125,-0.1875 H 0.84419531 c -0.15234375,0 -0.328125,0 -0.328125,0.1875 0,0.1992188 0.1875,0.1992188 0.328125,0.1992188 z m 0,3.63281246 c 0.1523437,0 0.328125,0 0.328125,-0.1875 0,-0.19921875 -0.1757813,-0.19921875 -0.328125,-0.19921875 H 0.84419531 c -0.140625,0 -0.328125,0 -0.328125,0.19921875 0,0.1875 0.17578125,0.1875 0.328125,0.1875 z m 0,-1.81640626 c 0.1523437,0 0.328125,0 0.328125,-0.1875 0,-0.1992187 -0.1757813,-0.1992187 -0.328125,-0.1992187 H 0.84419531 c -0.15234375,0 -0.328125,0 -0.328125,0.1875 0,0.1992187 0.1640625,0.1992187 0.328125,0.1992187 z m 0,0"
       style="fill:#333333;fill-opacity:1;fill-rule:nonzero;stroke:none"
       aria-label="≡"
       transform="matrix(1.3333333,0,0,1.3333333,220.808,47.948)" />
    <g
       id="g13"
       aria-label="(k,j)"
       transform="matrix(1.3333333,0,0,1.3333333,242.524,36.949333)">
      <path
         id="path14"
         d="m 3.0581719,2.1327266 c 0,-0.046875 -0.023437,-0.070312 -0.082031,-0.1289063 -1.1601562,-1.06640624 -1.5117187,-2.67187499 -1.5117187,-4.2421875 0,-1.3945312 0.2695312,-3.0820312 1.5351562,-4.2773437 0.035156,-0.035156 0.058594,-0.070312 0.058594,-0.1054688 0,-0.070312 -0.046875,-0.1054687 -0.1054688,-0.1054687 -0.1054687,0 -0.9140625,0.6445312 -1.40625,1.6289062 -0.421875,0.8554688 -0.64453123,1.78125 -0.64453123,2.8476563 0,0.6445312 0.0820313,1.66406246 0.57421873,2.73046871 0.5273438,1.10156249 1.3710938,1.74609379 1.4765625,1.74609379 0.058594,0 0.1054688,-0.035156 0.1054683,-0.09375 z m 0,0"
         style="fill:#333333;fill-opacity:1;fill-rule:nonzero;stroke:none" />
      <path
         id="path15"
         d="m 6.1607109,-5.9180547 c 0.035156,-0.1289062 0.035156,-0.140625 0.035156,-0.1757812 0,-0.082031 -0.058594,-0.1289063 -0.140625,-0.1289063 -0.1289063,0 -0.9140625,0.070312 -1.0898438,0.09375 -0.09375,0.011719 -0.1875,0.011719 -0.1875,0.1640625 0,0.1171875 0.09375,0.1171875 0.234375,0.1171875 0.421875,0 0.421875,0.070312 0.421875,0.140625 0,0.046875 0,0.058594 -0.035156,0.2226563 l -1.2890625,5.15624996 c -0.035156,0.1171875 -0.035156,0.140625 -0.035156,0.1640625 0,0.140625 0.1171875,0.2578125 0.28125,0.2578125 0.2929688,0 0.3515625,-0.2578125 0.3984375,-0.43359375 l 0.421875,-1.69921871 c 0.609375,0.058594 1.0664063,0.3046875 1.0664063,0.75 0,0.046875 0,0.082031 -0.023437,0.2226562 -0.011719,0.035156 -0.035156,0.16406251 -0.035156,0.25781251 0,0.52734375 0.3632813,0.90234375 0.8554688,0.90234375 0.3398437,0 0.5625,-0.19921875 0.7148437,-0.45703125 0.234375,-0.33984375 0.3515625,-0.87890621 0.3515625,-0.91406251 0,-0.046875 -0.023437,-0.1171875 -0.1171875,-0.1171875 -0.09375,0 -0.1171875,0.046875 -0.1523437,0.2109375 -0.1171875,0.45703126 -0.3398438,1.05468751 -0.7617188,1.05468751 -0.2695312,0 -0.2929687,-0.234375 -0.2929687,-0.421875 0,-0.234375 0.058594,-0.45703121 0.058594,-0.48046871 0.023437,-0.058594 0.046875,-0.1640625 0.046875,-0.2695313 0,-0.6210937 -0.65625,-0.8671875 -1.3476562,-0.9492187 0.2695312,-0.1757813 0.46875,-0.3632813 0.75,-0.6445313 0.4570312,-0.4570312 0.8320312,-0.84375 1.3125,-0.84375 0.1054687,0 0.2226562,0.023437 0.2929687,0.1054688 -0.3984375,0.035156 -0.5039062,0.375 -0.5039062,0.4921875 0,0.1757812 0.1289062,0.328125 0.3515625,0.328125 0.2109375,0 0.4921875,-0.1640625 0.4921875,-0.5625 0,-0.2929688 -0.2109375,-0.5859375 -0.6328125,-0.5859375 -0.5507813,0 -0.984375,0.4335937 -1.3710938,0.8203125 -0.421875,0.421875 -0.6445312,0.6445312 -0.9726562,0.7851562 z m 4.1103511,5.77734376 c 0,0.29296875 0,1.03125 -0.6562495,1.66406254 -0.058594,0.058594 -0.058594,0.058594 -0.058594,0.09375 0,0.070312 0.058594,0.1171875 0.1171875,0.1171875 0.09375,0 0.820313,-0.703125 0.820313,-1.75781254 0,-0.55078125 -0.1875,-0.94921875 -0.5742192,-0.94921875 -0.3046875,0 -0.4921875,0.234375 -0.4921875,0.4921875 0,0.24609375 0.1875,0.4804687525 0.4921875,0.4804687525 0.1289062,0 0.2695312,-0.0468750025 0.3515622,-0.1406250025 z m 6.09375,-5.44921876 c 0,-0.1757812 -0.128906,-0.3398437 -0.339843,-0.3398437 -0.234375,0 -0.480469,0.2109375 -0.480469,0.4804687 0,0.2226563 0.164062,0.328125 0.328125,0.328125 0.28125,0 0.492187,-0.2578125 0.492187,-0.46875 z m -1.828125,6.00000001 c -0.1875,0.76171879 -0.667968,1.20703129 -1.113281,1.20703129 -0.1875,0 -0.210937,-0.023437 -0.316406,-0.058594 0.164062,-0.058594 0.351562,-0.2460937 0.351562,-0.46875 0,-0.19921874 -0.152343,-0.32812499 -0.339843,-0.32812499 -0.246094,0 -0.492188,0.2109375 -0.492188,0.51562499 0,0.3867188 0.398438,0.5625 0.808594,0.5625 0.644531,0 1.5,-0.4804687 1.734375,-1.35937499 l 0.832031,-3.32812501 c 0.03516,-0.140625 0.03516,-0.2695312 0.03516,-0.28125 0,-0.4921875 -0.375,-0.8320312 -0.867187,-0.8320312 -0.9375,0 -1.464844,1.2773437 -1.464844,1.3828125 0,0.082031 0.05859,0.1054687 0.128906,0.1054687 0.08203,0 0.09375,-0.023437 0.164063,-0.1992187 0.257812,-0.5742188 0.679687,-1.0664063 1.148437,-1.0664063 0.269532,0 0.28125,0.2460938 0.28125,0.4101563 0,0.011719 0,0.1757812 -0.03516,0.2929687 z m 0,0"
         style="fill:#333333;fill-opacity:1;fill-rule:nonzero;stroke:none" />
      <path
         id="path16"
         d="m 19.692937,-2.2500859 c 0,-0.7382813 -0.105468,-1.7226563 -0.574218,-2.71875 -0.527344,-1.1015625 -1.359375,-1.7578125 -1.464844,-1.7578125 -0.09375,0 -0.117188,0.070312 -0.117188,0.1054687 0,0.035156 0.02344,0.070312 0.08203,0.1289063 0.527343,0.46875 1.511718,1.6875 1.511718,4.2421875 0,1.27734371 -0.234375,3.07031246 -1.535156,4.2773437 -0.02344,0.023437 -0.05859,0.058594 -0.05859,0.1054688 0,0.023437 0.02344,0.09375 0.117188,0.09375 0.105469,0 0.914062,-0.6445313 1.394531,-1.61718754 0.433594,-0.85546875 0.644531,-1.78124996 0.644531,-2.85937496 z m 0,0"
         style="fill:#333333;fill-opacity:1;fill-rule:nonzero;stroke:none" />
    </g>
    <g
       id="g16"
       aria-label="ˆ&#10;A=a&#10;jk&#10;|j⟩⟨k|"
       transform="matrix(1.3333333,0,0,1.3333333,44.88,97.681333)">
      <path
         id="path17"
         d="m 2.3077734,-6.2238906 -1.2421875,1.2070312 0.1640625,0.1875 1.078125,-0.9023437 1.0664063,0.9023437 0.1523437,-0.1875 z m 0,0"
         style="fill:#333333;fill-opacity:1;fill-rule:nonzero;stroke:none" />
      <path
         id="path18"
         d="m -0.80355469,1.2116563 c -0.43359371,0.7265625 -0.83203121,0.75 -1.19531251,0.7734375 -0.058594,0.011719 -0.1054687,0.082031 -0.1054687,0.1640625 0,0.058594 0.035156,0.1171875 0.1289062,0.1171875 0.1757813,0 0.5976563,-0.023437 0.7617188,-0.023437 0.1992187,0 0.67968746,0.023437 0.87890621,0.023437 0.0585938,0 0.17578125,0 0.17578125,-0.1640625 0,-0.1054688 -0.1171875,-0.1171875 -0.140625,-0.1171875 -0.0820313,0 -0.421875,-0.023437 -0.421875,-0.2929688 0,-0.1289062 0.10546875,-0.2929687 0.12890625,-0.3398437 L 0.11050781,0.192125 H 2.4542578 c 0.023437,0.2109375 0.058594,0.515625 0.082031,0.73828125 0.035156,0.35156255 0.082031,0.75000005 0.082031,0.77343755 0,0.1289062 -0.1171875,0.28125 -0.6445312,0.28125 -0.082031,0 -0.1992188,0 -0.1992188,0.1640625 0,0.09375 0.070312,0.1171875 0.1289063,0.1171875 0.1757812,0 0.3867187,-0.023437 0.5625,-0.023437 0.1875,0 0.3984375,0 0.5390625,0 0.3046875,0 0.3164062,0 0.5273437,0 0.1523438,0.011719 0.3515625,0.023437 0.5039063,0.023437 0.046875,0 0.1640625,0 0.1640625,-0.1640625 0,-0.1171875 -0.09375,-0.1171875 -0.1992188,-0.1171875 -0.5390625,0 -0.5507812,-0.058594 -0.5742187,-0.3164063 l -0.6328125,-5.578125 c -0.023437,-0.1992187 -0.023437,-0.2460937 -0.1757813,-0.2460937 -0.1289062,0 -0.1875,0.070312 -0.2578125,0.1875 z M 0.28628906,-0.07740625 2.0909766,-3.04225 2.4308203,-0.07740625 Z m 0,0"
         style="fill:#333333;fill-opacity:1;fill-rule:nonzero;stroke:none" />
      <path
         id="path19"
         d="m 13.390781,-0.6985 c 0.117188,0 0.292969,0 0.292969,-0.1875 0,-0.1992187 -0.199219,-0.1992187 -0.328125,-0.1992187 H 7.8829687 c -0.140625,0 -0.328125,0 -0.328125,0.1992187 0,0.1875 0.1757813,0.1875 0.2929688,0.1875 z m -0.03516,1.828125 c 0.128906,0 0.328125,0 0.328125,-0.19921875 0,-0.1875 -0.175781,-0.1875 -0.292969,-0.1875 H 7.8478125 c -0.1171875,0 -0.2929688,0 -0.2929688,0.1875 0,0.19921875 0.1875,0.19921875 0.328125,0.19921875 z m 0,0"
         style="fill:#333333;fill-opacity:1;fill-rule:nonzero;stroke:none" />
      <path
         id="path20"
         d="m 20.187656,-1.1438125 c -0.164062,-0.3164062 -0.445312,-0.5507812 -0.84375,-0.5507812 -1.042969,0 -2.203125,1.2304687 -2.203125,2.60156245 0,0.99609375 0.632813,1.45312505 1.230469,1.45312505 0.585937,0 1.054687,-0.4804688 1.195312,-0.6445313 0.105469,0.4921875 0.550782,0.6445313 0.84375,0.6445313 0.257813,0 0.480469,-0.1171875 0.679688,-0.4921875 0.152344,-0.2929688 0.28125,-0.84375 0.28125,-0.8789063 0,-0.046875 -0.02344,-0.1171875 -0.117188,-0.1171875 -0.105468,0 -0.117187,0.046875 -0.152343,0.2226563 C 20.9025,1.8679063 20.715,2.1374375 20.43375,2.1374375 c -0.222656,0 -0.28125,-0.2109375 -0.28125,-0.4101562 0,-0.1640625 0.04687,-0.3515625 0.128906,-0.6679688 L 20.504062,0.14525 c 0.05859,-0.22265625 0.222657,-0.90234375 0.257813,-1.03125 0.03516,-0.1289062 0.09375,-0.3398437 0.09375,-0.375 0,-0.140625 -0.117188,-0.2578125 -0.28125,-0.2578125 -0.117188,0 -0.339844,0.070312 -0.386719,0.375 z M 19.613437,1.1765 c -0.04687,0.1640625 -0.04687,0.1757813 -0.199218,0.3515625 -0.316407,0.375 -0.679688,0.609375 -1.019532,0.609375 -0.433593,0 -0.585937,-0.4570312 -0.585937,-0.84375 0,-0.43359375 0.257812,-1.46484375 0.46875,-1.8984375 0.292969,-0.5390625 0.703125,-0.8671875 1.066406,-0.8671875 0.597656,0 0.726563,0.71484375 0.726563,0.78515625 0,0.0351563 -0.01172,0.09375 -0.02344,0.12890625 z m 0,0"
         style="fill:#333333;fill-opacity:1;fill-rule:nonzero;stroke:none" />
      <path
         id="path21"
         d="m 24.423984,-0.39674219 c 0,-0.1875 -0.152343,-0.24609375 -0.246093,-0.24609375 -0.1875,0 -0.339844,0.1875 -0.339844,0.328125 0,0.12890625 0.09375,0.24609375 0.246094,0.24609375 0.152343,0 0.339843,-0.15234375 0.339843,-0.328125 z M 23.146641,3.5993516 c -0.117188,0.4453125 -0.46875,0.75 -0.808594,0.75 -0.02344,0 -0.1875,0 -0.1875,-0.023437 0,-0.011719 0.01172,-0.023437 0.01172,-0.023437 0.09375,-0.082031 0.140625,-0.1757813 0.140625,-0.2578125 0,-0.1992188 -0.164063,-0.234375 -0.246094,-0.234375 -0.164063,0 -0.339844,0.1289062 -0.339844,0.3515625 0,0.3164062 0.375,0.3867187 0.621094,0.3867187 0.398437,0 1.125,-0.2226562 1.300781,-0.9492187 l 0.539063,-2.1328125 c 0.01172,-0.058594 0.02344,-0.1171875 0.02344,-0.1992188 0,-0.33984374 -0.292969,-0.57421874 -0.679687,-0.57421874 -0.667969,0 -1.089844,0.80859374 -1.089844,0.92578124 0,0.035156 0.02344,0.082031 0.105469,0.082031 0.08203,0 0.09375,-0.023437 0.128906,-0.1054688 0.175781,-0.3984375 0.515625,-0.70312499 0.84375,-0.70312499 0.175781,0 0.210937,0.15234379 0.210937,0.29296879 0,0.082031 -0.01172,0.1640625 -0.01172,0.1875 z m 3.887695,-4.24218754 c 0.01172,-0.0234375 0.02344,-0.0585938 0.02344,-0.0820313 0,-0.09375 -0.117187,-0.09375 -0.1875,-0.0820313 l -0.679687,0.046875 c -0.09375,0.0117188 -0.175781,0.0117188 -0.175781,0.15234375 0,0.09375 0.08203,0.09375 0.175781,0.09375 0.175781,0 0.210937,0.0234375 0.292969,0.046875 0,0.0703125 0,0.0820313 -0.02344,0.17578125 l -0.84375,3.33984374 c -0.02344,0.09375 -0.02344,0.1289063 -0.02344,0.140625 0,0.1523438 0.128906,0.1992188 0.210937,0.1992188 0.05859,0 0.175781,-0.023437 0.246094,-0.140625 0.04687,-0.070312 0.28125,-1.0664063 0.328125,-1.2539063 0.398437,0.023438 0.832031,0.1171875 0.832031,0.4804688 0,0.023437 0,0.058594 -0.02344,0.1171875 -0.01172,0.09375 -0.01172,0.1289062 -0.01172,0.1757812 0,0.3984375 0.328125,0.6210938 0.667969,0.6210938 0.585937,0 0.785156,-0.8671875 0.785156,-0.9140625 0,-0.011719 0,-0.09375 -0.105469,-0.09375 -0.08203,0 -0.09375,0.035156 -0.128906,0.140625 -0.05859,0.2226562 -0.222656,0.6679687 -0.527344,0.6679687 -0.234375,0 -0.234375,-0.2578125 -0.234375,-0.3164062 0,-0.09375 0,-0.1054688 0.03516,-0.2226563 0,-0.011719 0.02344,-0.1289062 0.02344,-0.1992187 0,-0.4570313 -0.515625,-0.5976563 -0.972656,-0.6445313 0.140625,-0.09375 0.269531,-0.1875 0.503906,-0.3984375 0.304687,-0.2578125 0.609375,-0.51562499 0.9375,-0.51562499 0.08203,0 0.152344,0.0117188 0.210937,0.0820313 -0.210937,0.0351562 -0.304687,0.19921879 -0.304687,0.32812509 0,0.1875 0.152344,0.234375 0.234375,0.234375 0.140625,0 0.351562,-0.09375 0.351562,-0.3984375 0,-0.25781259 -0.1875,-0.44531259 -0.480468,-0.44531259 -0.375,0 -0.738282,0.29296875 -1.007813,0.52734379 -0.304687,0.2695313 -0.492187,0.421875 -0.714844,0.5039063 z m 0,0"
         style="fill:#333333;fill-opacity:1;fill-rule:nonzero;stroke:none" />
      <path
         id="path22"
         d="m 31.089023,-4.120375 c 0,-0.1523437 0,-0.3398437 -0.1875,-0.3398437 -0.1875,0 -0.1875,0.1757812 -0.1875,0.3398437 V 4.1765 c 0,0.1523438 0,0.328125 0.1875,0.328125 0.1875,0 0.1875,-0.1640625 0.1875,-0.328125 z m 0,0"
         style="fill:#333333;fill-opacity:1;fill-rule:nonzero;stroke:none" />
      <path
         id="path23"
         d="m 35.80582,-3.3235 c 0,-0.1757812 -0.128906,-0.3398437 -0.339843,-0.3398437 -0.234375,0 -0.480469,0.2109375 -0.480469,0.4804687 0,0.2226563 0.164062,0.328125 0.328125,0.328125 0.28125,0 0.492187,-0.2578125 0.492187,-0.46875 z m -1.828125,6 c -0.1875,0.7617188 -0.667968,1.2070313 -1.113281,1.2070313 -0.1875,0 -0.210937,-0.023437 -0.316406,-0.058594 0.164062,-0.058594 0.351562,-0.2460937 0.351562,-0.46875 0,-0.1992187 -0.152343,-0.328125 -0.339843,-0.328125 -0.246094,0 -0.492188,0.2109375 -0.492188,0.515625 0,0.3867188 0.398438,0.5625 0.808594,0.5625 0.644531,0 1.5,-0.4804687 1.734375,-1.359375 l 0.832031,-3.328125 c 0.03516,-0.140625 0.03516,-0.26953125 0.03516,-0.28125 0,-0.4921875 -0.375,-0.8320312 -0.867187,-0.8320312 -0.9375,0 -1.464844,1.2773437 -1.464844,1.38281245 0,0.0820313 0.05859,0.10546875 0.128906,0.10546875 0.08203,0 0.09375,-0.0234375 0.164063,-0.19921875 0.257812,-0.57421875 0.679687,-1.06640625 1.148437,-1.06640625 0.269532,0 0.28125,0.2460938 0.28125,0.4101563 0,0.011719 0,0.1757812 -0.03516,0.2929687 z m 0,0"
         style="fill:#333333;fill-opacity:1;fill-rule:nonzero;stroke:none" />
      <path
         id="path24"
         d="m 38.972812,0.192125 c 0.05859,-0.12890625 0.05859,-0.15234375 0.05859,-0.1640625 0,-0.03515625 0,-0.046875 -0.05859,-0.17578125 L 37.390781,-4.2375625 c -0.07031,-0.1640625 -0.117187,-0.2226562 -0.222656,-0.2226562 -0.105469,0 -0.1875,0.082031 -0.1875,0.1992187 0,0.023437 0,0.035156 0.04687,0.1640625 L 38.62125,0.01634375 37.0275,4.1413438 c -0.04687,0.1289062 -0.04687,0.140625 -0.04687,0.1640625 0,0.1171875 0.08203,0.1875 0.1875,0.1875 0.105469,0 0.152344,-0.046875 0.222656,-0.2109375 z m 4.089844,-4.2890625 c 0.05859,-0.1289062 0.05859,-0.140625 0.05859,-0.1640625 0,-0.1171875 -0.09375,-0.1992187 -0.1875,-0.1992187 -0.128906,0 -0.164063,0.070312 -0.175781,0.09375 l -1.640625,4.21874995 c -0.05859,0.12890625 -0.05859,0.140625 -0.05859,0.1640625 0,0.0234375 0,0.046875 0.05859,0.17578125 l 1.582031,4.078125 c 0.04687,0.1171875 0.09375,0.2226563 0.234375,0.2226563 0.09375,0 0.1875,-0.070312 0.1875,-0.1875 0,-0.023437 0,-0.035156 -0.05859,-0.1640625 l -1.59375,-4.1132813 z m 0,0"
         style="fill:#333333;fill-opacity:1;fill-rule:nonzero;stroke:none" />
      <path
         id="path25"
         d="m 46.21207,-3.651625 c 0.03516,-0.1289062 0.03516,-0.140625 0.03516,-0.1757812 0,-0.082031 -0.05859,-0.1289063 -0.140625,-0.1289063 -0.128907,0 -0.914063,0.070312 -1.089844,0.09375 -0.09375,0.011719 -0.1875,0.011719 -0.1875,0.1640625 0,0.1171875 0.09375,0.1171875 0.234375,0.1171875 0.421875,0 0.421875,0.070312 0.421875,0.140625 0,0.046875 0,0.058594 -0.03516,0.2226563 l -1.289063,5.15625 c -0.03516,0.1171875 -0.03516,0.140625 -0.03516,0.1640625 0,0.140625 0.117187,0.2578125 0.28125,0.2578125 0.292969,0 0.351562,-0.2578125 0.398437,-0.4335938 L 45.22769,0.22728125 c 0.609375,0.0585938 1.066407,0.3046875 1.066407,0.75 0,0.0468752 0,0.0820313 -0.02344,0.22265625 -0.01172,0.035156 -0.03516,0.1640625 -0.03516,0.2578125 0,0.5273438 0.363281,0.9023438 0.855469,0.9023438 0.339843,0 0.5625,-0.1992188 0.714843,-0.4570313 0.234375,-0.3398437 0.351563,-0.8789062 0.351563,-0.9140625 0,-0.046875 -0.02344,-0.1171875 -0.117188,-0.1171875 -0.09375,0 -0.117187,0.046875 -0.152343,0.2109375 -0.117188,0.4570313 -0.339844,1.0546875 -0.761719,1.0546875 -0.269531,0 -0.292969,-0.234375 -0.292969,-0.421875 0,-0.234375 0.05859,-0.4570312 0.05859,-0.4804687 0.02344,-0.058594 0.04687,-0.1640625 0.04687,-0.2695313 0,-0.62109375 -0.65625,-0.8671875 -1.347656,-0.94921875 0.269531,-0.17578125 0.46875,-0.36328125 0.75,-0.64453125 0.457031,-0.4570312 0.832031,-0.84375 1.3125,-0.84375 0.105468,0 0.222656,0.023437 0.292968,0.1054688 -0.398437,0.035156 -0.503906,0.37499995 -0.503906,0.49218745 0,0.17578125 0.128906,0.328125 0.351563,0.328125 0.210937,0 0.492187,-0.1640625 0.492187,-0.56249995 0,-0.2929688 -0.210937,-0.5859375 -0.632812,-0.5859375 -0.550782,0 -0.984375,0.4335937 -1.371094,0.82031245 -0.421875,0.421875 -0.644531,0.64453125 -0.972656,0.78515625 z m 0,0"
         style="fill:#333333;fill-opacity:1;fill-rule:nonzero;stroke:none" />
      <path
         id="path26"
         d="m 50.161289,-4.120375 c 0,-0.1523437 0,-0.3398437 -0.1875,-0.3398437 -0.1875,0 -0.1875,0.1757812 -0.1875,0.3398437 V 4.1765 c 0,0.1523438 0,0.328125 0.1875,0.328125 0.1875,0 0.1875,-0.1640625 0.1875,-0.328125 z m 0,0"
         style="fill:#333333;fill-opacity:1;fill-rule:nonzero;stroke:none" />
    </g>
    <g
       id="g26"
       aria-label="|A⟩⟩=a&#10;jk&#10;|k⟩⊗|j⟩"
       transform="matrix(1.3333333,0,0,1.3333333,181.73867,98.346667)">
      <path
         id="path27"
         d="m 1.4645547,-6.3859766 c 0,-0.1523437 0,-0.3398437 -0.1875,-0.3398437 -0.1875,0 -0.1875,0.1757812 -0.1875,0.3398437 v 8.296875 c 0,0.1523438 0,0.328125 0.1875,0.328125 0.1875,0 0.1875,-0.1640625 0.1875,-0.328125 z m 0,0"
         style="fill:#333333;fill-opacity:1;fill-rule:nonzero;stroke:none" />
      <path
         id="path28"
         d="m 4.1891641,-1.0539453 c -0.4335938,0.72656249 -0.8320313,0.74999999 -1.1953125,0.77343749 -0.058594,0.0117188 -0.1054688,0.0820313 -0.1054688,0.1640625 0,0.05859375 0.035156,0.1171874975 0.1289063,0.1171874975 0.1757812,0 0.5976562,-0.0234374975 0.7617187,-0.0234374975 0.1992188,0 0.6796875,0.0234374975 0.8789063,0.0234374975 0.058594,0 0.1757812,0 0.1757812,-0.1640624975 0,-0.10546875 -0.1171875,-0.1171875 -0.140625,-0.1171875 -0.082031,0 -0.421875,-0.0234375 -0.421875,-0.29296875 0,-0.12890625 0.1054688,-0.29296875 0.1289063,-0.33984375 l 0.703125,-1.16015629 h 2.34375 c 0.023437,0.2109375 0.058594,0.515625 0.082031,0.7382813 0.035156,0.35156249 0.082031,0.74999999 0.082031,0.77343749 0,0.12890625 -0.1171875,0.28125 -0.6445313,0.28125 -0.082031,0 -0.1992187,0 -0.1992187,0.1640625 0,0.09375 0.070312,0.1171874975 0.1289062,0.1171874975 0.1757813,0 0.3867188,-0.0234374975 0.5625,-0.0234374975 0.1875,0 0.3984375,0 0.5390625,0 0.3046875,0 0.3164063,0 0.5273438,0 0.1523437,0.01171875 0.3515625,0.0234374975 0.5039062,0.0234374975 0.046875,0 0.1640625,0 0.1640625,-0.1640624975 0,-0.1171875 -0.09375,-0.1171875 -0.1992187,-0.1171875 -0.5390625,0 -0.5507813,-0.0585938 -0.5742188,-0.31640625 L 7.7868203,-6.1750391 c -0.023437,-0.1992187 -0.023437,-0.2460937 -0.1757812,-0.2460937 -0.1289063,0 -0.1875,0.070312 -0.2578125,0.1875 z m 1.0898437,-1.2890625 1.8046875,-2.9648438 0.3398438,2.9648438 z m 0,0"
         style="fill:#333333;fill-opacity:1;fill-rule:nonzero;stroke:none" />
      <path
         id="path29"
         d="m 11.979203,-2.0734766 c 0.05859,-0.1289062 0.05859,-0.1523437 0.05859,-0.1640625 0,-0.035156 0,-0.046875 -0.05859,-0.1757812 l -1.582031,-4.0898438 c -0.07031,-0.1640625 -0.117188,-0.2226562 -0.222656,-0.2226562 -0.105469,0 -0.1875004,0.082031 -0.1875004,0.1992187 0,0.023437 0,0.035156 0.046875,0.1640625 l 1.59375,4.1132813 -1.59375,4.125 c -0.046875,0.1289062 -0.046875,0.140625 -0.046875,0.1640625 0,0.1171875 0.082031,0.1875 0.1875004,0.1875 0.105468,0 0.152343,-0.046875 0.222656,-0.2109375 z m 2.047852,0 c 0.05859,-0.1289062 0.05859,-0.1523437 0.05859,-0.1640625 0,-0.035156 0,-0.046875 -0.05859,-0.1757812 l -1.582032,-4.0898438 c -0.07031,-0.1640625 -0.117187,-0.2226562 -0.222656,-0.2226562 -0.105469,0 -0.1875,0.082031 -0.1875,0.1992187 0,0.023437 0,0.035156 0.04687,0.1640625 l 1.59375,4.1132813 -1.59375,4.125 c -0.04687,0.1289062 -0.04687,0.140625 -0.04687,0.1640625 0,0.1171875 0.08203,0.1875 0.1875,0.1875 0.105469,0 0.152344,-0.046875 0.222656,-0.2109375 z m 0,0"
         style="fill:#333333;fill-opacity:1;fill-rule:nonzero;stroke:none" />
      <path
         id="path30"
         d="m 24.01143,-2.9641016 c 0.117187,0 0.292968,0 0.292968,-0.1875 0,-0.1992187 -0.199218,-0.1992187 -0.328125,-0.1992187 h -5.472656 c -0.140625,0 -0.328125,0 -0.328125,0.1992187 0,0.1875 0.175781,0.1875 0.292969,0.1875 z m -0.03516,1.828125 c 0.128907,0 0.328125,0 0.328125,-0.1992187 0,-0.1875 -0.175781,-0.1875 -0.292968,-0.1875 h -5.542969 c -0.117188,0 -0.292969,0 -0.292969,0.1875 0,0.1992187 0.1875,0.1992187 0.328125,0.1992187 z m 0,0"
         style="fill:#333333;fill-opacity:1;fill-rule:nonzero;stroke:none" />
      <path
         id="path31"
         d="m 30.811234,-3.4094141 c -0.164062,-0.3164062 -0.445312,-0.5507812 -0.84375,-0.5507812 -1.042968,0 -2.203125,1.2304687 -2.203125,2.6015625 0,0.99609374 0.632813,1.45312499 1.230469,1.45312499 0.585938,0 1.054688,-0.48046875 1.195313,-0.64453125 0.105468,0.4921875 0.550781,0.64453125 0.84375,0.64453125 0.257812,0 0.480468,-0.1171875 0.679687,-0.4921875 0.152344,-0.29296875 0.28125,-0.84374999 0.28125,-0.87890629 0,-0.046875 -0.02344,-0.1171875 -0.117187,-0.1171875 -0.105469,0 -0.117188,0.046875 -0.152344,0.2226563 -0.199219,0.77343749 -0.386719,1.04296874 -0.667969,1.04296874 -0.222656,0 -0.28125,-0.2109375 -0.28125,-0.41015625 0,-0.1640625 0.04687,-0.3515625 0.128906,-0.66796879 l 0.222657,-0.9140625 c 0.05859,-0.2226562 0.222656,-0.9023437 0.257812,-1.03125 0.03516,-0.1289062 0.09375,-0.3398437 0.09375,-0.375 0,-0.140625 -0.117187,-0.2578125 -0.28125,-0.2578125 -0.117187,0 -0.339844,0.070312 -0.386719,0.375 z m -0.574218,2.3203125 c -0.04687,0.16406254 -0.04687,0.17578129 -0.199219,0.35156254 -0.316406,0.375 -0.679688,0.609375 -1.019531,0.609375 -0.433594,0 -0.585938,-0.45703125 -0.585938,-0.84375 0,-0.43359374 0.257813,-1.46484374 0.46875,-1.89843754 0.292969,-0.5390625 0.703125,-0.8671875 1.066406,-0.8671875 0.597657,0 0.726563,0.7148438 0.726563,0.7851563 0,0.035156 -0.01172,0.09375 -0.02344,0.1289062 z m 0,0"
         style="fill:#333333;fill-opacity:1;fill-rule:nonzero;stroke:none" />
      <path
         id="path32"
         d="m 35.047563,-2.6652734 c 0,-0.1875 -0.152344,-0.2460938 -0.246094,-0.2460938 -0.1875,0 -0.339844,0.1875 -0.339844,0.328125 0,0.1289063 0.09375,0.2460938 0.246094,0.2460938 0.152344,0 0.339844,-0.1523438 0.339844,-0.328125 z m -1.277344,3.9960937 c -0.117188,0.4453125 -0.46875,0.75 -0.808594,0.75 -0.02344,0 -0.1875,0 -0.1875,-0.023437 0,-0.011719 0.01172,-0.023437 0.01172,-0.023437 0.09375,-0.082031 0.140625,-0.1757812 0.140625,-0.2578125 0,-0.1992187 -0.164063,-0.234375 -0.246094,-0.234375 -0.164062,0 -0.339844,0.1289063 -0.339844,0.3515625 0,0.3164063 0.375,0.3867188 0.621094,0.3867188 0.398438,0 1.125,-0.2226563 1.300781,-0.9492188 l 0.539063,-2.13281249 c 0.01172,-0.0585938 0.02344,-0.1171875 0.02344,-0.19921871 0,-0.3398438 -0.292968,-0.5742188 -0.679687,-0.5742188 -0.667969,0 -1.089844,0.80859376 -1.089844,0.92578126 0,0.0351563 0.02344,0.0820313 0.105469,0.0820313 0.08203,0 0.09375,-0.0234375 0.128906,-0.10546875 0.175781,-0.39843741 0.515625,-0.70312491 0.84375,-0.70312491 0.175781,0 0.210938,0.1523437 0.210938,0.2929687 0,0.082031 -0.01172,0.16406246 -0.01172,0.18749996 z m 3.884765,-4.2421875 c 0.01172,-0.023437 0.02344,-0.058594 0.02344,-0.082031 0,-0.09375 -0.117188,-0.09375 -0.1875,-0.082031 l -0.679688,0.046875 c -0.09375,0.011719 -0.175781,0.011719 -0.175781,0.1523438 0,0.09375 0.08203,0.09375 0.175781,0.09375 0.175782,0 0.210938,0.023437 0.292969,0.046875 0,0.070312 0,0.082031 -0.02344,0.1757812 l -0.84375,3.33984376 c -0.02344,0.09375 -0.02344,0.12890625 -0.02344,0.140625 0,0.15234374 0.128906,0.19921874 0.210938,0.19921874 0.05859,0 0.175781,-0.023437 0.246093,-0.14062499 0.04687,-0.0703125 0.28125,-1.06640625 0.328125,-1.25390625 0.398438,0.0234375 0.832032,0.1171875 0.832032,0.48046875 0,0.0234375 0,0.0585938 -0.02344,0.1171875 -0.01172,0.09375 -0.01172,0.12890625 -0.01172,0.17578125 0,0.3984375 0.328125,0.62109374 0.667969,0.62109374 0.585938,0 0.785156,-0.86718749 0.785156,-0.91406249 0,-0.0117188 0,-0.09375 -0.105468,-0.09375 -0.08203,0 -0.09375,0.0351563 -0.128907,0.140625 -0.05859,0.22265625 -0.222656,0.66796875 -0.527343,0.66796875 -0.234375,0 -0.234375,-0.2578125 -0.234375,-0.31640625 0,-0.09375 0,-0.10546875 0.03516,-0.22265625 0,-0.0117188 0.02344,-0.12890625 0.02344,-0.19921875 0,-0.45703125 -0.515625,-0.59765625 -0.972656,-0.64453125 0.140625,-0.09375 0.269531,-0.1875 0.503906,-0.3984375 0.304688,-0.25781246 0.609375,-0.51562496 0.9375,-0.51562496 0.08203,0 0.152344,0.011719 0.210938,0.082031 -0.210938,0.035156 -0.304688,0.1992188 -0.304688,0.32812501 0,0.1875 0.152344,0.234375 0.234375,0.234375 0.140625,0 0.351563,-0.09375 0.351563,-0.39843751 0,-0.2578125 -0.1875,-0.4453125 -0.480469,-0.4453125 -0.375,0 -0.738281,0.2929688 -1.007812,0.5273438 -0.304688,0.26953121 -0.492188,0.42187496 -0.714844,0.50390621 z m 0,0"
         style="fill:#333333;fill-opacity:1;fill-rule:nonzero;stroke:none" />
      <path
         id="path33"
         d="m 41.712602,-6.3859766 c 0,-0.1523437 0,-0.3398437 -0.1875,-0.3398437 -0.1875,0 -0.1875,0.1757812 -0.1875,0.3398437 v 8.296875 c 0,0.1523438 0,0.328125 0.1875,0.328125 0.1875,0 0.1875,-0.1640625 0.1875,-0.328125 z m 0,0"
         style="fill:#333333;fill-opacity:1;fill-rule:nonzero;stroke:none" />
      <path
         id="path34"
         d="m 45.38643,-5.9172266 c 0.03516,-0.1289062 0.03516,-0.140625 0.03516,-0.1757812 0,-0.082031 -0.05859,-0.1289063 -0.140625,-0.1289063 -0.128906,0 -0.914063,0.070312 -1.089844,0.09375 -0.09375,0.011719 -0.1875,0.011719 -0.1875,0.1640625 0,0.1171875 0.09375,0.1171875 0.234375,0.1171875 0.421875,0 0.421875,0.070312 0.421875,0.140625 0,0.046875 0,0.058594 -0.03516,0.2226563 l -1.289063,5.15624999 c -0.03516,0.1171875 -0.03516,0.140625 -0.03516,0.1640625 0,0.140625 0.117188,0.2578125 0.28125,0.2578125 0.292969,0 0.351563,-0.2578125 0.398438,-0.43359375 l 0.421875,-1.69921874 c 0.609375,0.058594 1.066406,0.3046875 1.066406,0.75 0,0.046875 0,0.082031 -0.02344,0.2226562 -0.01172,0.035156 -0.03516,0.16406254 -0.03516,0.25781254 0,0.52734375 0.363281,0.90234375 0.855469,0.90234375 0.339844,0 0.5625,-0.19921875 0.714844,-0.45703125 0.234375,-0.33984375 0.351562,-0.87890624 0.351562,-0.91406254 0,-0.046875 -0.02344,-0.1171875 -0.117187,-0.1171875 -0.09375,0 -0.117188,0.046875 -0.152344,0.2109375 -0.117188,0.45703129 -0.339844,1.05468754 -0.761719,1.05468754 -0.269531,0 -0.292969,-0.234375 -0.292969,-0.421875 0,-0.234375 0.05859,-0.45703124 0.05859,-0.48046874 0.02344,-0.058594 0.04687,-0.1640625 0.04687,-0.2695313 0,-0.6210937 -0.65625,-0.8671875 -1.347656,-0.9492187 0.269531,-0.1757813 0.46875,-0.3632813 0.75,-0.6445313 0.457031,-0.4570312 0.832031,-0.84375 1.3125,-0.84375 0.105469,0 0.222656,0.023437 0.292969,0.1054688 -0.398438,0.035156 -0.503907,0.375 -0.503907,0.4921875 0,0.1757812 0.128907,0.328125 0.351563,0.328125 0.210937,0 0.492187,-0.1640625 0.492187,-0.5625 0,-0.2929688 -0.210937,-0.5859375 -0.632812,-0.5859375 -0.550781,0 -0.984375,0.4335937 -1.371094,0.8203125 -0.421875,0.421875 -0.644531,0.6445312 -0.972656,0.7851562 z m 0,0"
         style="fill:#333333;fill-opacity:1;fill-rule:nonzero;stroke:none" />
      <path
         id="path35"
         d="m 50.375688,-2.0734766 c 0.05859,-0.1289062 0.05859,-0.1523437 0.05859,-0.1640625 0,-0.035156 0,-0.046875 -0.05859,-0.1757812 l -1.582032,-4.0898438 c -0.07031,-0.1640625 -0.117187,-0.2226562 -0.222656,-0.2226562 -0.105469,0 -0.1875,0.082031 -0.1875,0.1992187 0,0.023437 0,0.035156 0.04687,0.1640625 l 1.59375,4.1132813 -1.59375,4.125 c -0.04687,0.1289062 -0.04687,0.140625 -0.04687,0.1640625 0,0.1171875 0.08203,0.1875 0.1875,0.1875 0.105469,0 0.152344,-0.046875 0.222656,-0.2109375 z m 9.764648,-0.1640625 c 0,-1.7109375 -1.382813,-3.0820312 -3.070313,-3.0820312 -1.699218,0 -3.058593,1.3945312 -3.058593,3.0703125 0,1.71093749 1.371093,3.07031249 3.058593,3.07031249 1.710938,0 3.070313,-1.3828125 3.070313,-3.05859379 z m -4.96875,-2.0859375 c 0.351562,-0.328125 1.007812,-0.7382812 1.898437,-0.7382812 0.890625,0 1.546875,0.3984375 1.898438,0.7382812 l -1.898438,1.8984375 z m -0.175781,3.98437504 c -0.351563,-0.38671875 -0.738282,-1.05468754 -0.738282,-1.89843754 0,-0.9140625 0.433594,-1.5820312 0.738282,-1.9101562 l 1.910156,1.8984375 z m 4.160156,-3.80859374 c 0.351562,0.3867187 0.726562,1.0429687 0.726562,1.8984375 0,0.9140625 -0.421875,1.58203124 -0.726562,1.91015624 L 57.245805,-2.2375391 Z m -0.1875,3.98437499 c -0.339844,0.328125 -0.996094,0.73828125 -1.898438,0.73828125 -0.890625,0 -1.535156,-0.3984375 -1.898437,-0.73828125 l 1.898437,-1.89843749 z m 5.214844,-6.22265629 c 0,-0.1523437 0,-0.3398437 -0.1875,-0.3398437 -0.1875,0 -0.1875,0.1757812 -0.1875,0.3398437 v 8.296875 c 0,0.1523438 0,0.328125 0.1875,0.328125 0.1875,0 0.1875,-0.1640625 0.1875,-0.328125 z m 0,0"
         style="fill:#333333;fill-opacity:1;fill-rule:nonzero;stroke:none" />
      <path
         id="path36"
         d="m 68.897172,-5.5891016 c 0,-0.1757812 -0.128906,-0.3398437 -0.339844,-0.3398437 -0.234375,0 -0.480469,0.2109375 -0.480469,0.4804687 0,0.2226563 0.164063,0.328125 0.328125,0.328125 0.28125,0 0.492188,-0.2578125 0.492188,-0.46875 z m -1.828125,6.00000004 c -0.1875,0.76171876 -0.667969,1.20703126 -1.113281,1.20703126 -0.1875,0 -0.210938,-0.023437 -0.316407,-0.058594 0.164063,-0.058594 0.351563,-0.2460937 0.351563,-0.46875 0,-0.19921871 -0.152344,-0.32812496 -0.339844,-0.32812496 -0.246094,0 -0.492187,0.2109375 -0.492187,0.51562496 0,0.3867188 0.398437,0.5625 0.808593,0.5625 0.644532,0 1.5,-0.4804687 1.734375,-1.35937496 l 0.832032,-3.32812504 c 0.03516,-0.140625 0.03516,-0.2695312 0.03516,-0.28125 0,-0.4921875 -0.375,-0.8320312 -0.867188,-0.8320312 -0.9375,0 -1.464843,1.2773437 -1.464843,1.3828125 0,0.082031 0.05859,0.1054687 0.128906,0.1054687 0.08203,0 0.09375,-0.023437 0.164062,-0.1992187 0.257813,-0.5742188 0.679688,-1.0664063 1.148438,-1.0664063 0.269531,0 0.28125,0.2460938 0.28125,0.4101563 0,0.011719 0,0.1757812 -0.03516,0.2929687 z m 0,0"
         style="fill:#333333;fill-opacity:1;fill-rule:nonzero;stroke:none" />
      <path
         id="path37"
         d="m 72.064164,-2.0734766 c 0.05859,-0.1289062 0.05859,-0.1523437 0.05859,-0.1640625 0,-0.035156 0,-0.046875 -0.05859,-0.1757812 l -1.582031,-4.0898438 c -0.07031,-0.1640625 -0.117188,-0.2226562 -0.222656,-0.2226562 -0.105469,0 -0.1875,0.082031 -0.1875,0.1992187 0,0.023437 0,0.035156 0.04687,0.1640625 l 1.59375,4.1132813 -1.59375,4.125 c -0.04687,0.1289062 -0.04687,0.140625 -0.04687,0.1640625 0,0.1171875 0.08203,0.1875 0.1875,0.1875 0.105468,0 0.152343,-0.046875 0.222656,-0.2109375 z m 0,0"
         style="fill:#333333;fill-opacity:1;fill-rule:nonzero;stroke:none" />
    </g>
    <path
       id="path38"
       d="M 27.11526,53.00868 H 4.06639 c -1.77611,0 -3.21589,-1.43977 -3.21589,-3.21588 V 26.74393 c 0,-1.77611 1.43978,-3.2159 3.21589,-3.2159 h 23.04887 c 1.77611,0 3.21589,1.43979 3.21589,3.2159 V 49.7928 c 0,1.77611 -1.43978,3.21588 -3.21589,3.21588 z"
       style="fill:#e8e8e8;fill-opacity:1;fill-rule:nonzero;stroke:#000000;stroke-width:2.04236;stroke-linecap:butt;stroke-linejoin:miter;stroke-miterlimit:10;stroke-dasharray:none;stroke-opacity:1"
       transform="matrix(1.3333333,0,0,-1.3333333,20.736,96.142667)" />
    <path
       id="path39"
       d="m 1.6274531,-1.0543437 c -0.4335937,0.72656245 -0.83203122,0.74999995 -1.19531247,0.77343745 -0.0585938,0.0117188 -0.10546875,0.0820313 -0.10546875,0.1640625 0,0.05859375 0.0351563,0.1171875 0.12890625,0.1171875 0.17578125,0 0.59765627,-0.0234375 0.76171877,-0.0234375 0.1992187,0 0.6796875,0.0234375 0.8789062,0.0234375 0.058594,0 0.1757813,0 0.1757813,-0.1640625 0,-0.10546875 -0.1171875,-0.1171875 -0.140625,-0.1171875 -0.082031,0 -0.421875,-0.0234375 -0.421875,-0.29296875 0,-0.12890625 0.1054687,-0.29296875 0.1289062,-0.33984375 L 2.5415156,-2.073875 h 2.34375 c 0.023437,0.2109375 0.058594,0.515625 0.082031,0.7382813 0.035156,0.35156245 0.082031,0.74999995 0.082031,0.77343745 0,0.12890625 -0.1171875,0.28125 -0.6445312,0.28125 -0.082031,0 -0.1992188,0 -0.1992188,0.1640625 0,0.09375 0.070312,0.1171875 0.1289063,0.1171875 0.1757812,0 0.3867187,-0.0234375 0.5625,-0.0234375 0.1875,0 0.3984375,0 0.5390625,0 0.3046875,0 0.3164062,0 0.5273437,0 0.1523438,0.01171875 0.3515625,0.0234375 0.5039063,0.0234375 0.046875,0 0.1640625,0 0.1640625,-0.1640625 0,-0.1171875 -0.09375,-0.1171875 -0.1992188,-0.1171875 -0.5390625,0 -0.5507812,-0.0585938 -0.5742187,-0.31640625 l -0.6328125,-5.578125 c -0.023437,-0.1992187 -0.023437,-0.2460937 -0.1757813,-0.2460937 -0.1289062,0 -0.1875,0.070312 -0.2578125,0.1875 z M 2.7172969,-2.3434062 4.5219844,-5.30825 4.8618281,-2.3434062 Z m 0,0"
       style="fill:#333333;fill-opacity:1;fill-rule:nonzero;stroke:none"
       aria-label="A"
       transform="matrix(1.3333333,0,0,1.3333333,36.916,49.202667)" />
    <path
       id="path40"
       d="M 120.65938,53.00868 H 97.6105 c -1.7761,0 -3.2159,-1.43977 -3.2159,-3.21588 V 26.74393 c 0,-1.77611 1.4398,-3.2159 3.2159,-3.2159 h 23.04888 c 1.77611,0 3.21588,1.43979 3.21588,3.2159 V 49.7928 c 0,1.77611 -1.43977,3.21588 -3.21588,3.21588 z"
       style="fill:#e8e8e8;fill-opacity:1;fill-rule:nonzero;stroke:#000000;stroke-width:2.04236;stroke-linecap:butt;stroke-linejoin:miter;stroke-miterlimit:10;stroke-dasharray:none;stroke-opacity:1"
       transform="matrix(1.3333333,0,0,-1.3333333,20.736,96.142667)" />
    <path
       id="path41"
       d="m 1.629375,-1.0543437 c -0.4335937,0.72656245 -0.83203125,0.74999995 -1.1953125,0.77343745 -0.0585938,0.0117188 -0.10546875,0.0820313 -0.10546875,0.1640625 0,0.05859375 0.0351563,0.1171875 0.12890625,0.1171875 0.17578125,0 0.5976563,-0.0234375 0.7617188,-0.0234375 0.1992187,0 0.6796875,0.0234375 0.8789062,0.0234375 0.058594,0 0.1757813,0 0.1757813,-0.1640625 0,-0.10546875 -0.1171875,-0.1171875 -0.140625,-0.1171875 -0.082031,0 -0.421875,-0.0234375 -0.421875,-0.29296875 0,-0.12890625 0.1054687,-0.29296875 0.1289062,-0.33984375 L 2.5434375,-2.073875 h 2.34375 c 0.023437,0.2109375 0.058594,0.515625 0.082031,0.7382813 0.035156,0.35156245 0.082031,0.74999995 0.082031,0.77343745 0,0.12890625 -0.1171875,0.28125 -0.6445312,0.28125 -0.082031,0 -0.1992188,0 -0.1992188,0.1640625 0,0.09375 0.070312,0.1171875 0.1289063,0.1171875 0.1757812,0 0.3867187,-0.0234375 0.5625,-0.0234375 0.1875,0 0.3984375,0 0.5390625,0 0.3046875,0 0.3164062,0 0.5273437,0 0.1523438,0.01171875 0.3515625,0.0234375 0.5039063,0.0234375 0.046875,0 0.1640625,0 0.1640625,-0.1640625 0,-0.1171875 -0.09375,-0.1171875 -0.1992188,-0.1171875 -0.5390625,0 -0.5507812,-0.0585938 -0.5742187,-0.31640625 l -0.632812,-5.578125 C 5.2035938,-6.3746562 5.2035938,-6.4215312 5.05125,-6.4215312 c -0.1289062,0 -0.1875,0.070312 -0.2578125,0.1875 z M 2.7192188,-2.3434062 4.5239063,-5.30825 4.86375,-2.3434062 Z m 0,0"
       style="fill:#333333;fill-opacity:1;fill-rule:nonzero;stroke:none"
       aria-label="A"
       transform="matrix(1.3333333,0,0,1.3333333,161.64,49.202667)" />
    <path
       id="path42"
       d="m 192.8776,22.59651 25.27351,14.61907 c 1.00523,0.58143 1.00523,1.52414 0,2.10556 L 192.8776,53.9402 c -1.00522,0.58144 -1.82012,0.11139 -1.82012,-1.04991 V 23.64642 c 0,-1.16128 0.8149,-1.63133 1.82012,-1.04991 z"
       style="fill:#eadeee;fill-opacity:1;fill-rule:nonzero;stroke:#000000;stroke-width:2.04236;stroke-linecap:butt;stroke-linejoin:round;stroke-miterlimit:10;stroke-dasharray:none;stroke-opacity:1"
       transform="matrix(1.3333333,0,0,-1.3333333,20.736,96.142667)" />
    <path
       id="path43"
       d="m 1.6274766,-1.0543437 c -0.4335938,0.72656245 -0.83203129,0.74999995 -1.19531254,0.77343745 -0.0585938,0.0117188 -0.10546875,0.0820313 -0.10546875,0.1640625 0,0.05859375 0.0351563,0.1171875 0.12890625,0.1171875 0.17578125,0 0.59765624,-0.0234375 0.76171874,-0.0234375 0.1992188,0 0.6796875,0.0234375 0.8789063,0.0234375 0.058594,0 0.1757812,0 0.1757812,-0.1640625 0,-0.10546875 -0.1171875,-0.1171875 -0.140625,-0.1171875 -0.082031,0 -0.421875,-0.0234375 -0.421875,-0.29296875 0,-0.12890625 0.1054688,-0.29296875 0.1289063,-0.33984375 L 2.5415391,-2.073875 h 2.34375 c 0.023437,0.2109375 0.058594,0.515625 0.082031,0.7382813 0.035156,0.35156245 0.082031,0.74999995 0.082031,0.77343745 0,0.12890625 -0.1171875,0.28125 -0.6445313,0.28125 -0.082031,0 -0.1992187,0 -0.1992187,0.1640625 0,0.09375 0.070312,0.1171875 0.1289062,0.1171875 0.1757813,0 0.3867188,-0.0234375 0.5625,-0.0234375 0.1875,0 0.3984375,0 0.5390625,0 0.3046875,0 0.3164063,0 0.5273438,0 0.1523437,0.01171875 0.3515625,0.0234375 0.5039062,0.0234375 0.046875,0 0.1640625,0 0.1640625,-0.1640625 0,-0.1171875 -0.09375,-0.1171875 -0.1992187,-0.1171875 -0.5390625,0 -0.5507813,-0.0585938 -0.5742188,-0.31640625 l -0.6328125,-5.578125 c -0.023437,-0.1992187 -0.023437,-0.2460937 -0.1757812,-0.2460937 -0.1289063,0 -0.1875,0.070312 -0.2578125,0.1875 z M 2.7173203,-2.3434062 4.5220078,-5.30825 4.8618516,-2.3434062 Z m 0,0"
       style="fill:#333333;fill-opacity:1;fill-rule:nonzero;stroke:none"
       aria-label="A"
       transform="matrix(1.3333333,0,0,1.3333333,284.748,49.202667)" />
  </g>
</svg>
